<svg width="109" height="124" viewBox="0 0 109 124" fill="none" xmlns="http://www.w3.org/2000/svg">
<path d="M49.5943 1.57413C52.558 -0.17814 56.4181 -0.186055 59.3792 1.57413C74.2762 10.2691 89.1778 18.9504 104.072 27.6506C106.874 29.2807 108.748 32.5011 108.719 35.8355V88.1477C108.74 91.6201 106.681 94.9176 103.725 96.5107C88.8773 105.158 74.0369 113.815 59.1915 122.462C56.1665 124.249 52.2289 124.111 49.2985 122.178C44.8471 119.513 40.388 116.86 35.9361 114.197C35.0264 113.637 34.001 113.191 33.3586 112.28C33.9265 111.49 34.9417 111.391 35.7667 111.046C37.6248 110.436 39.3314 109.456 41.0384 108.505C41.4701 108.2 41.9971 108.317 42.4109 108.59C46.2174 110.845 49.9902 113.164 53.8095 115.397C54.6243 115.883 55.4493 115.238 56.1457 114.837C70.7161 106.331 85.3045 97.8566 99.8724 89.3477C100.412 89.0795 100.711 88.4876 100.667 87.8768C100.677 70.6202 100.669 53.3604 100.672 36.1037C100.734 35.4108 100.345 34.7736 99.7387 34.49C84.9422 25.8825 70.1534 17.2619 55.3594 8.65225C55.1031 8.47023 54.7995 8.37256 54.4885 8.37209C54.1774 8.37162 53.8735 8.46836 53.6167 8.64961C38.8227 17.2619 24.0364 25.8905 9.24251 34.4975C8.63803 34.7815 8.23235 35.4081 8.30429 36.1037C8.30684 53.3604 8.30429 70.6202 8.30429 87.8795C8.27864 88.1775 8.342 88.4765 8.48585 88.7361C8.6297 88.9958 8.84712 89.2037 9.10884 89.3319C13.0567 91.6443 17.0096 93.9405 20.96 96.2451C23.1855 97.4824 25.918 98.2177 28.37 97.2696C30.5337 96.468 32.0505 94.1872 32.0092 91.8141C32.0296 74.6581 31.9989 57.4995 32.0245 40.3461C31.9704 39.5845 32.6698 38.9553 33.3867 39.027C35.2836 39.0138 37.183 39.0006 39.0798 39.0323C39.8716 39.0138 40.4165 39.8339 40.3186 40.6012C40.3109 57.8658 40.339 75.1308 40.3058 92.3954C40.3109 96.9966 38.4809 102.003 34.3607 104.255C29.2848 106.971 23.011 106.395 17.9964 103.79C13.6552 101.552 9.51239 98.9106 5.24828 96.5129C2.28506 94.9286 0.236222 91.6179 0.25708 88.1481V35.8355C0.226005 32.4321 2.17438 29.1531 5.0631 27.5469C19.9086 18.8928 34.7514 10.2321 49.5943 1.57413Z" fill="#8CC84B"/>
<path d="M62.5454 37.8111C69.0202 37.3807 75.9517 37.5561 81.778 40.8509C86.2891 43.3757 88.79 48.6748 88.8696 53.8515C88.7436 54.5498 88.0369 54.935 87.3916 54.8871C85.513 54.8844 83.634 54.9135 81.7555 54.8739C80.9586 54.9055 80.4955 54.1466 80.3954 53.4189C79.8556 50.9419 78.5479 48.4888 76.2909 47.2941C72.8263 45.5022 68.809 45.5924 65.031 45.6297C62.273 45.781 59.3072 46.0277 56.9706 47.703C55.1768 48.972 54.6319 51.5338 55.2721 53.5969C55.8758 55.0784 57.5313 55.5563 58.8858 55.9969C66.6887 58.1049 74.9572 57.8952 82.6111 60.6693C85.7799 61.8003 88.8798 63.9989 89.9645 67.426C91.3833 72.0193 90.7614 77.5096 87.5976 81.1971C85.032 84.2315 81.2953 85.8831 77.5684 86.7801C72.6104 87.9221 67.4651 87.9511 62.4301 87.4441C57.6956 86.8865 52.7687 85.6017 49.1137 82.2695C45.9883 79.4663 44.4618 75.0986 44.6133 70.8831C44.6495 70.1712 45.3357 69.6747 45.996 69.7332C47.8877 69.7174 49.7795 69.7121 51.6712 69.7359C52.4268 69.68 52.987 70.3545 53.0258 71.0902C53.3748 73.4501 54.2335 75.9271 56.2257 77.3262C60.0705 79.8885 64.8948 79.713 69.2973 79.7847C72.9446 79.6176 77.0389 79.567 80.0153 77.0769C81.5856 75.6566 82.0509 73.2804 81.6265 71.2362C81.1668 69.5103 79.4189 68.706 77.9179 68.1801C70.2151 65.6632 61.8541 66.5765 54.2258 63.7302C51.1289 62.5997 48.1342 60.4622 46.9444 57.1758C45.2842 52.5245 46.0449 46.7712 49.5402 43.2082C52.9483 39.6641 57.868 38.2992 62.5454 37.8107V37.8111Z" fill="#8CC84B"/>
</svg>
