<svg width="99" height="108" viewBox="0 0 99 108" fill="none" xmlns="http://www.w3.org/2000/svg">
<path d="M48.58 0.000935549C44.525 0.0210397 40.6532 0.395359 37.2467 1.04826C27.2102 2.96773 25.388 6.98376 25.388 14.3917V24.1747H49.1054V27.4354H16.4865C9.59381 27.4354 3.55743 31.9196 1.66973 40.4495C-0.508107 50.2268 -0.604526 56.3279 1.66973 66.5369C3.35574 74.1363 7.38236 79.551 14.275 79.551H22.43V67.8236C22.43 59.3511 29.2032 51.8782 37.2467 51.8782H60.9367C67.5312 51.8782 72.7954 46.002 72.7954 38.8344V14.3907C72.7954 7.43467 67.3729 2.20856 60.9367 1.04731C56.8614 0.313986 52.6349 -0.0201259 48.58 0.000935549ZM35.7535 7.86835C38.2038 7.86835 40.2039 10.0693 40.2039 12.7747C40.2039 15.4706 38.2029 17.6514 35.7535 17.6514C33.2953 17.6514 31.3032 15.4715 31.3032 12.7747C31.3032 10.0693 33.2953 7.86835 35.7535 7.86835Z" fill="#306998"/>
<path d="M75.7534 27.4344V38.8325C75.7534 47.6697 68.8307 55.1073 60.9367 55.1073H37.2467C30.7574 55.1073 25.388 61.1175 25.388 68.151V92.5928C25.388 99.5498 30.9768 103.641 37.2467 105.637C44.7541 108.026 51.9537 108.458 60.9367 105.637C66.9076 103.766 72.7954 99.9998 72.7954 92.5928V82.8108H49.1054V79.5501H84.6541C91.5476 79.5501 94.1155 74.346 96.5127 66.536C98.9896 58.4963 98.8843 50.7629 96.5127 40.4485C94.809 33.0224 91.5556 27.4344 84.6541 27.4344H75.7534ZM62.429 89.3322C64.8872 89.3322 66.8793 91.512 66.8793 94.2088C66.8793 96.9143 64.8872 99.1152 62.429 99.1152C59.9787 99.1152 57.9786 96.9143 57.9786 94.2088C57.9786 91.513 59.9795 89.3322 62.429 89.3322Z" fill="#FFD43B"/>
</svg>
