<svg width="118" height="108" viewBox="0 0 118 108" fill="none" xmlns="http://www.w3.org/2000/svg">
<path d="M0.347534 53.8826C0.347534 62.9053 8.99574 71.3279 22.6297 76.0757C19.9071 90.0391 22.1421 101.294 29.6062 105.679C37.2781 110.187 48.708 107.067 59.5566 97.4057C70.1315 106.677 80.8188 110.325 88.2764 105.927C95.9415 101.407 98.2724 89.3888 95.4746 74.9891C109.675 70.2061 117.619 63.0241 117.619 53.8826C117.619 45.0693 108.955 37.445 95.5046 32.7278C98.5167 17.7331 95.9646 6.75141 88.1912 2.18489C80.6971 -2.21775 69.8853 1.61953 59.1552 11.1329C47.9917 1.03539 37.2869 -2.0473 29.5218 2.5319C22.0347 6.94722 19.8983 18.407 22.6297 32.6287C9.45574 37.3079 0.347534 45.105 0.347534 53.8826Z" fill="white"/>
<path d="M92.6561 37.4122C91.5475 37.0248 90.4296 36.666 89.3033 36.336C89.4901 35.5628 89.6628 34.7861 89.8214 34.0064C92.3592 21.4559 90.6999 11.3452 85.0334 8.01695C79.6006 4.82484 70.715 8.15312 61.7409 16.109C60.8566 16.8947 59.992 17.7031 59.1478 18.5333C58.5824 17.9813 58.0071 17.4399 57.4221 16.9096C48.0171 8.40199 38.5899 4.81733 32.9294 8.15547C27.5016 11.3565 25.8939 20.8619 28.1787 32.756C28.406 33.9339 28.6627 35.1056 28.9484 36.2702C27.6145 36.6562 26.3262 37.0675 25.0938 37.5052C14.0677 41.4213 7.02576 47.5595 7.02576 53.9259C7.02576 60.5017 14.5848 67.0972 26.07 71.096C27.0013 71.4187 27.9403 71.7178 28.8862 71.9929C28.5789 73.2475 28.3061 74.5107 28.0681 75.7808C25.8898 87.4683 27.591 96.7483 33.0045 99.9296C38.5959 103.214 47.9802 99.8381 57.1183 91.7005C57.8406 91.0572 58.5656 90.3749 59.2916 89.6598C60.206 90.5586 61.1448 91.4312 62.1069 92.2767C70.9583 100.036 79.7001 103.17 85.109 99.9799C90.6953 96.6854 92.5104 86.7161 90.1533 74.5867C89.9735 73.6603 89.7638 72.7141 89.5287 71.7506C90.1878 71.5524 90.8345 71.3477 91.4655 71.1345C103.405 67.1047 111.173 60.5895 111.173 53.9259C111.173 47.5365 103.904 41.357 92.6561 37.4122Z" fill="#0F7CE9"/>
<path d="M90.0662 66.8324C89.4969 67.0244 88.9125 67.2099 88.317 67.3897C86.9988 63.1388 85.2196 58.6183 83.0432 53.9484C85.1205 49.3889 86.8305 44.9267 88.1119 40.7029C89.1771 41.0175 90.2114 41.3486 91.2079 41.6984C100.846 45.0779 106.724 50.0755 106.724 53.9259C106.724 58.0275 100.375 63.3524 90.0666 66.8324H90.0662ZM85.7889 75.4672C86.831 80.8306 86.9799 85.6798 86.2894 89.4706C85.669 92.8768 84.4218 95.1476 82.8795 96.0572C79.5973 97.9927 72.578 95.4768 65.0088 88.8409C64.1409 88.0802 63.2665 87.2679 62.3899 86.4085C65.3245 83.1385 68.2574 79.3369 71.1197 75.1155C76.1547 74.6605 80.9114 73.9162 85.2252 72.9006C85.4372 73.774 85.6262 74.63 85.7889 75.4672ZM42.5317 95.7228C39.3251 96.8766 36.7711 96.9094 35.2275 96.0027C31.9421 94.0728 30.5768 86.6208 32.4394 76.6261C32.6609 75.4449 32.9145 74.2702 33.1999 73.1034C37.4657 74.0646 42.1878 74.7563 47.2349 75.1733C50.1161 79.304 53.1337 83.1009 56.1749 86.4259C55.5285 87.0629 54.8669 87.6835 54.1906 88.2873C50.1497 91.886 46.1006 94.4386 42.5321 95.7228H42.5317ZM27.509 66.807C22.4306 65.0386 18.2367 62.7406 15.3619 60.2331C12.7789 57.9792 11.4745 55.7417 11.4745 53.9259C11.4745 50.0628 17.1286 45.1347 26.5586 41.7853C27.7421 41.3667 28.9375 40.9835 30.1431 40.6363C31.4466 44.9548 33.1561 49.4702 35.2192 54.0362C33.1294 58.6704 31.3954 63.2576 30.08 67.6269C29.2165 67.3751 28.3592 67.1017 27.509 66.807ZM32.545 31.8854C30.5874 21.6945 31.8872 14.0072 35.1584 12.0782C38.6429 10.0234 46.3472 12.9535 54.4676 20.2989C54.9866 20.7685 55.5079 21.2601 56.0301 21.7686C53.0047 25.0786 50.0147 28.8469 47.1584 32.9537C42.2602 33.4162 37.5713 34.1591 33.2608 35.1541C32.9952 34.0707 32.7566 32.9806 32.545 31.885V31.8854ZM77.4693 43.1865C76.4511 41.3948 75.3952 39.6257 74.3023 37.8804C77.6255 38.3077 80.8091 38.8759 83.7986 39.5713C82.9012 42.5018 81.7826 45.5662 80.4653 48.7076C79.5028 46.8471 78.5039 45.0063 77.4693 43.1865ZM59.1492 25.0077C61.2012 27.2724 63.2564 29.8015 65.278 32.5452C61.1772 32.3478 57.0696 32.3468 52.9687 32.5424C54.9921 29.824 57.0649 27.2987 59.1492 25.0077ZM40.7115 43.2175C39.6898 45.0229 38.7097 46.8523 37.7718 48.7043C36.4761 45.5737 35.3676 42.4957 34.4624 39.5234C37.4339 38.8458 40.6027 38.2922 43.9043 37.8719C42.7991 39.6281 41.7346 41.4104 40.7115 43.2175ZM43.9992 70.3034C40.5885 69.9155 37.3717 69.3901 34.4011 68.7313C35.3206 65.7063 36.4536 62.5621 37.7768 59.3644C38.7187 61.2178 39.7032 63.0483 40.7295 64.8546C41.7767 66.697 42.867 68.5138 43.9992 70.3034ZM59.2722 83.1643C57.1635 80.8461 55.0604 78.2822 53.0061 75.5245C55 75.6043 57.0331 75.6447 59.0994 75.6447C61.2224 75.6447 63.3209 75.5963 65.3863 75.5024C63.3583 78.3104 61.3104 80.878 59.2722 83.1643ZM80.5077 59.2015C81.8996 62.4339 83.0731 65.5612 84.0051 68.535C80.9852 69.237 77.7251 69.8024 74.2899 70.2222C75.3907 68.4442 76.4567 66.6442 77.4873 64.8231C78.5349 62.9723 79.5419 61.0979 80.5077 59.2015ZM73.6331 62.5588C72.0554 65.3509 70.3891 68.0899 68.6367 70.7715C65.5467 70.9965 62.3535 71.1124 59.0994 71.1124C55.8587 71.1124 52.706 71.0096 49.6699 70.8091C47.8721 68.1337 46.1742 65.3899 44.58 62.5837C42.9932 59.7924 41.5111 56.9407 40.1367 54.0348C41.5076 51.128 42.9853 48.2748 44.5666 45.4812V45.4822C46.1475 42.688 47.832 39.9559 49.6165 37.292C52.7138 37.0535 55.8895 36.9286 59.0998 36.9286C62.3244 36.9286 65.5043 37.0544 68.6008 37.2948C70.3672 39.9547 72.0409 42.6772 73.6188 45.4573C75.2056 48.2447 76.703 51.0839 78.1086 53.9705C76.7174 56.8865 75.2248 59.7511 73.6335 62.5588H73.6331ZM82.8113 11.9435C86.2986 13.9926 87.6551 22.2556 85.4639 33.0917C85.3203 33.7977 85.1642 34.5009 84.9956 35.201C80.675 34.1854 75.9828 33.4294 71.0704 32.9598C68.2085 28.8084 65.2434 25.0335 62.2668 21.7663C63.0468 21.0002 63.8454 20.254 64.6617 19.5283C72.3508 12.7112 79.537 10.0196 82.8113 11.9435Z" fill="white"/>
<path d="M59.0994 44.4514C64.2359 44.4514 68.3994 48.6935 68.3994 53.9258C68.3994 59.1587 64.2359 63.4007 59.0994 63.4007C53.9634 63.4007 49.7995 59.1587 49.7995 53.9258C49.7995 48.6935 53.9634 44.4514 59.0994 44.4514Z" fill="#187EE3"/>
</svg>
