<svg width="512" height="512" viewBox="0 0 512 512" fill="none" xmlns="http://www.w3.org/2000/svg">
<path d="M485.88 512H26.12V0H319.12L485.88 161.64V512ZM44.12 494H467.88V169.26L311.82 18H44.12V494Z" fill="#F9EDED"/>
<path d="M477.08 174.17H306.66V8.95999H324.66V156.17H477.08V174.17Z" fill="#F9EDED"/>
<path d="M170 182C156.551 182 143.404 178.012 132.221 170.54C121.039 163.068 112.323 152.448 107.176 140.022C102.029 127.597 100.683 113.925 103.307 100.734C105.93 87.5431 112.407 75.4267 121.917 65.9167C131.427 56.4068 143.543 49.9304 156.734 47.3066C169.925 44.6828 183.597 46.0294 196.022 51.1762C208.448 56.323 219.068 65.0387 226.54 76.2212C234.012 87.4038 238 100.551 238 114C237.979 132.028 230.808 149.312 218.06 162.06C205.312 174.808 188.028 181.979 170 182V182ZM170 64C160.111 64 150.444 66.9324 142.221 72.4265C133.999 77.9206 127.59 85.7295 123.806 94.8658C120.022 104.002 119.031 114.055 120.961 123.755C122.89 133.454 127.652 142.363 134.645 149.355C141.637 156.348 150.546 161.11 160.245 163.039C169.945 164.969 179.998 163.978 189.134 160.194C198.27 156.41 206.079 150.001 211.573 141.779C217.068 133.556 220 123.889 220 114C219.984 100.744 214.711 88.0356 205.338 78.6622C195.964 69.2888 183.256 64.0159 170 64V64Z" fill="#F9EDED"/>
<path d="M257.83 230H239.83V209.67C239.83 200.387 236.143 191.485 229.579 184.921C223.015 178.357 214.113 174.67 204.83 174.67H199.66L193.56 164.21L204.83 157.63V156.63H206.43L209.1 155.07L210.1 156.87C223.163 158.204 235.267 164.332 244.074 174.072C252.88 183.811 257.764 196.469 257.78 209.6L257.83 230Z" fill="#F9EDED"/>
<path d="M104.83 230H86.83V209.67C86.8456 196.336 91.8799 183.497 100.931 173.706C109.983 163.915 122.388 157.89 135.68 156.83L138.55 153.65L151.93 165.65L143.85 174.65H139.85C130.567 174.65 121.665 178.337 115.101 184.901C108.538 191.465 104.85 200.367 104.85 209.65L104.83 230Z" fill="#F9EDED"/>
<path d="M425 261.5H87V279.5H425V261.5Z" fill="#F9EDED"/>
<path d="M425 315.83H87V333.83H425V315.83Z" fill="#F9EDED"/>
<path d="M425 370.17H87V388.17H425V370.17Z" fill="#F9EDED"/>
<path d="M263.67 424.5H87V442.5H263.67V424.5Z" fill="#F9EDED"/>
</svg>
